<?xml version="1.0" encoding="utf-8"?>
<!-- Generator: Adobe Illustrator 27.0.0, SVG Export Plug-In . SVG Version: 6.00 Build 0)  -->
<svg version="1.1" id="圖層_1" xmlns="http://www.w3.org/2000/svg" xmlns:xlink="http://www.w3.org/1999/xlink" x="0px" y="0px"
	 viewBox="0 0 417 64" style="enable-background:new 0 0 417 64;" xml:space="preserve">
<style type="text/css">
	.st0{fill:#FFFFFF;}
</style>
<path class="st0" d="M374,50.6h-3.3V64h3.3c13.3,0,24.3-10.9,24.3-24.3V33h-13.1l-0.2,6.7C385,45.7,380.1,50.6,374,50.6L374,50.6z"
	/>
<path class="st0" d="M360.7,19.9c5.5,0,10-4.5,10-10c0-5.5-4.5-10-10-10c-5.5,0-10,4.5-10,10C350.8,15.5,355.2,19.9,360.7,19.9z"/>
<path class="st0" d="M384.6,19.1h-13.9V33h13.9V19.1z"/>
<path class="st0" d="M416.3,0.8h-17.8v17.8h17.8V0.8z"/>
<path class="st0" d="M124.6,23h-3.5v12.9h3.3c4.6,0,5.2-3.9,5.2-6.8C129.6,25,128,23,124.6,23z M123.7,25.2h0.7c1.6,0,2.6,0.7,2.6,4
	c0,3.3-1,4.5-2.6,4.5h-0.6L123.7,25.2L123.7,25.2z"/>
<path class="st0" d="M134.5,33.6v-3.4h4.4V28h-4.4v-2.7h4.6V23h-7.2v12.9h7.2l0.4-2.3H134.5z"/>
<path class="st0" d="M146.4,23h-4v12.9h2.6v-5.1h1.2c2.7,0,4.3-1.5,4.3-4S148.8,23,146.4,23z M144.9,25.1h1.2c1.1,0,1.7,0.6,1.7,1.7
	c0,1.2-0.5,1.9-1.8,1.9h-1.1V25.1z"/>
<path class="st0" d="M156.9,23.1h-2.8l-3.4,12.8h2.5l0.9-3.5h2.7l0.9,3.5h2.7L156.9,23.1L156.9,23.1z M156.4,30.3h-2
	c0,0,0.7-3.2,0.9-4.3C155.6,27.1,156.1,28.8,156.4,30.3L156.4,30.3z"/>
<path class="st0" d="M170.6,35.3c-0.2-0.6-0.2-1.3-0.2-2.4v-0.5c0-1.1-0.2-2.3-1.1-3.1c0.6-0.5,1.2-1.3,1.2-2.8c0-2.3-1.5-3.6-4-3.6
	h-4.1v12.9h2.6v-5.4h1c1.4,0,1.6,0.4,1.6,2v0.4c0,1.2,0,2.2,0.2,2.7l0.1,0.3h2.6L170.6,35.3L170.6,35.3z M165.1,25.2h1.3
	c1.1,0,1.5,0.5,1.5,1.5s-0.5,1.7-1.7,1.7h-1.1V25.2z"/>
<path class="st0" d="M172.2,23v2.3h3v10.6h2.6V25.3h3V23H172.2z"/>
<path class="st0" d="M190.2,23.2v0.2c-0.8,2.6-1.7,6.1-2.2,8.2c-0.5-2.1-1.2-5.4-2-8.2v-0.3h-3.1v12.6h2.2v-5c0-0.9,0-2.4,0-3.3
	c0.5,2.3,1.2,5.6,1.6,7.8l0.1,0.6h2.1v-0.3c0.7-2.5,1.5-6,2.1-8.3c0,0.9,0,2.3,0,3.3v5.3h2.3V23.2H190.2z"/>
<path class="st0" d="M198.8,33.6v-3.4h4.4V28h-4.4v-2.7h4.6V23h-7.2v12.9h7.2l0.4-2.3H198.8z"/>
<path class="st0" d="M212.4,23v4.8c0,0.9,0,2.4,0,3.3C211.8,30,209,23,209,23h-2.8v12.9h2.5V31c0-0.9,0-2.6,0-3.5
	c0.5,1.3,3.4,8.4,3.4,8.4h2.7V23H212.4L212.4,23z"/>
<path class="st0" d="M216.8,23v2.3h3v10.6h2.6V25.3h3V23H216.8z"/>
<path class="st0" d="M269.7,35.3c-0.2-0.6-0.2-1.3-0.2-2.4v-0.5c0-1.1-0.2-2.3-1.1-3.1c0.6-0.5,1.2-1.3,1.2-2.8c0-2.3-1.5-3.6-4-3.6
	h-4.1v12.9h2.6v-5.4h1c1.4,0,1.6,0.4,1.6,2v0.4c0,1.2,0,2.2,0.2,2.7l0.1,0.3h2.6L269.7,35.3L269.7,35.3z M264.2,25.2h1.3
	c1.1,0,1.5,0.5,1.5,1.5s-0.5,1.7-1.7,1.7h-1.1V25.2z"/>
<path class="st0" d="M249.3,25.3V23H242v12.9h2.6v-5.5h4.3v-2.3h-4.3v-2.8H249.3z"/>
<path class="st0" d="M255.1,22.8c-3,0-4.5,2.2-4.5,6.5c0,4.3,1.5,6.7,4.5,6.7c3,0,4.5-3.9,4.5-6.7C259.5,26.5,259.1,22.8,255.1,22.8
	z M255.1,33.8c-1.2,0-1.8-1.5-1.8-4.5c0-4.3,1.4-4.3,1.8-4.3c0.9,0,1.8,0.5,1.8,4.3S255.9,33.8,255.1,33.8L255.1,33.8z"/>
<path class="st0" d="M293,23l-0.1,0.3c-0.3,0.6-1.6,4.3-1.9,5.1c-0.3-0.8-1.6-4.5-1.9-5.1L289,23h-3.1l3.7,7.8c0,0,0,0.1,0,0.1v5
	h2.6v-5c0-0.1,0-0.1,0-0.1L296,23H293L293,23z"/>
<path class="st0" d="M300.7,22.8c-3,0-4.5,2.2-4.5,6.5c0,4.3,1.5,6.7,4.5,6.7c3,0,4.5-3.9,4.5-6.7C305.2,26.5,304.7,22.8,300.7,22.8
	z M300.6,33.8c-1.2,0-1.8-1.5-1.8-4.5c0-4.3,1.4-4.3,1.8-4.3c0.9,0,1.8,0.5,1.8,4.3S301.5,33.8,300.6,33.8L300.6,33.8z"/>
<path class="st0" d="M313,23v8.8c0,1.5-0.4,2-1.6,2c-1.2,0-1.6-0.2-1.6-2V23h-2.6v8.9c0,2.8,1.4,4.2,4.2,4.2c2.8,0,4.3-1.4,4.3-4.2
	V23H313z"/>
<path class="st0" d="M316.9,23v2.3h3v10.6h2.6V25.3h3V23H316.9z"/>
<path class="st0" d="M332.7,23v5h-3.2v-5h-2.6v12.9h2.6v-5.6h3.2v5.6h2.6V23H332.7z"/>
<path class="st0" d="M212.7,48.7l-0.1,0.3c-0.3,0.6-1.6,4.3-1.9,5.1c-0.3-0.8-1.6-4.5-1.9-5.1l-0.1-0.3h-3.1l3.7,7.8
	c0,0,0,0.1,0,0.1v5h2.6v-5c0-0.1,0-0.1,0-0.1l3.7-7.8H212.7L212.7,48.7z"/>
<path class="st0" d="M187.3,57.3v0.4c-0.2,1.8-1.2,1.8-1.6,1.8c-1.2,0-1.7-1.4-1.7-4.4s0.6-4.3,1.8-4.3c1.3,0,1.3,0.5,1.4,1.7V53
	h2.6v-0.5c-0.1-2.5-1.6-4-4-4s-4.5,1.2-4.5,6.5s0,6.7,4.4,6.7c4.4,0,4-1.4,4.2-4v-0.5L187.3,57.3L187.3,57.3z"/>
<path class="st0" d="M194.6,48.7H192v12.9h2.6V48.7z"/>
<path class="st0" d="M196.3,48.7V51h3v10.7h2.6V51h3v-2.3H196.3z"/>
<path class="st0" d="M278.5,61c-0.2-0.6-0.2-1.3-0.2-2.4v-0.5c0-1.1-0.2-2.3-1.1-3.1c0.6-0.5,1.2-1.3,1.2-2.8c0-2.3-1.5-3.6-4-3.6
	h-4.1v12.9h2.6v-5.4h1c1.4,0,1.6,0.4,1.6,2v0.4c0,1.2,0,2.2,0.2,2.7l0.1,0.3h2.6L278.5,61L278.5,61z M273,50.9h1.3
	c1.1,0,1.5,0.5,1.5,1.5c0,1.1-0.5,1.7-1.7,1.7H273V50.9z"/>
<path class="st0" d="M300.4,48.9v0.2c-0.8,2.6-1.7,6.1-2.2,8.2c-0.5-2.1-1.2-5.4-2-8.2v-0.3h-3.1v12.6h2.2v-5c0-0.9,0-2.4,0-3.3
	c0.5,2.3,1.2,5.6,1.6,7.8l0.1,0.6h2.1v-0.3c0.7-2.5,1.5-6,2.1-8.3c0,0.9,0,2.3,0,3.3v5.3h2.3V48.9H300.4z"/>
<path class="st0" d="M309,59.4V56h4.4v-2.3H309V51h4.6v-2.3h-7.2v12.9h7.2l0.4-2.3H309z"/>
<path class="st0" d="M322.6,48.7v4.8c0,0.9,0,2.4,0,3.3c-0.5-1.2-3.3-8.1-3.3-8.1h-2.8v12.9h2.5v-4.9c0-0.9,0-2.6,0-3.5
	c0.5,1.3,3.4,8.4,3.4,8.4h2.7V48.7H322.6L322.6,48.7z"/>
<path class="st0" d="M327.1,48.7V51h3v10.7h2.6V51h3v-2.3H327.1z"/>
<path class="st0" d="M231.6,56.3h2.4v0.1c0,2.6-0.7,3.1-1.8,3.1c-1.1,0-1.8-0.5-1.8-4.4s1.5-4.4,2-4.4c1.2,0,1.4,0.8,1.5,1.6v0.4
	h2.6v-0.5c-0.2-2.4-1.6-3.7-4.1-3.7c-2.5,0-4.7,1.2-4.7,6.6s0,6.6,4.2,6.6s1.7-0.2,2.3-0.7c0,0,0,0.1,0,0.1v0.4h2.3v-7.5h-4.8
	L231.6,56.3L231.6,56.3z"/>
<path class="st0" d="M243,48.5c-3,0-4.5,2.2-4.5,6.5c0,4.3,1.5,6.7,4.5,6.7c3,0,4.5-3.9,4.5-6.7C247.5,52.2,247,48.5,243,48.5z
	 M243,59.6c-1.2,0-1.8-1.5-1.8-4.5c0-4.3,1.4-4.3,1.8-4.3c0.9,0,1.8,0.5,1.8,4.3C244.8,58.8,243.8,59.5,243,59.6L243,59.6z"/>
<path class="st0" d="M255.9,48.7l-1.5,5.9l-0.3,0.9c-0.2,0.6-0.3,1.2-0.5,1.8c-0.2-0.9-0.5-1.9-0.7-2.7l-1.5-5.9h-2.7l3.6,12.9h2.7
	l3.7-12.9H255.9L255.9,48.7z"/>
<path class="st0" d="M263.1,59.4V56h4.4v-2.3h-4.4V51h4.6v-2.3h-7.2v12.9h7.2l0.4-2.3H263.1z"/>
<path class="st0" d="M287.5,48.7v4.8c0,0.9,0,1.8,0,2.7c-0.5-1.2-1.3-2.9-2.5-5.6l-0.8-1.9h-2.8v12.9h2.5v-4.9c0-0.9,0-2,0-2.9
	c0.5,1.3,1.4,3.3,2.8,6.4l0.6,1.5h2.7V48.8L287.5,48.7L287.5,48.7z"/>
<path class="st0" d="M135.5,48.8h-2.8l-3.4,12.8h2.5l0.9-3.5h2.7l0.9,3.5h2.7L135.5,48.8L135.5,48.8z M135.1,56.1h-2
	c0,0,0.7-3.2,0.9-4.3C134.3,52.8,134.8,54.6,135.1,56.1L135.1,56.1z"/>
<path class="st0" d="M120.7,48.7V51h3v10.7h2.6V51h3v-2.3H120.7z"/>
<path class="st0" d="M143.8,48.7h-2.6v12.9h2.6V48.7z"/>
<path class="st0" d="M159,59.4V56h4.4v-2.3H159V51h4.6v-2.3h-7.2v12.9h7.2l0.4-2.3H159z"/>
<path class="st0" d="M169.2,48.7h-2.6v12.9h2.6V48.7z"/>
<path class="st0" d="M151.2,48.7h-4v12.9h2.6v-5.1h1.2c2.7,0,4.3-1.5,4.3-4C155.3,50.1,153.7,48.7,151.2,48.7z M149.8,50.8h1.2
	c1.1,0,1.7,0.6,1.7,1.7c0,1.2-0.5,1.9-1.8,1.9h-1.1V50.8z"/>
<path class="st0" d="M7.4,10.6H1.5v0.8h14.2v-0.8H9.6V9.7h6.7V8.8H9.6V8H7.4v0.8H0.9v0.9h6.5V10.6z"/>
<path class="st0" d="M9.8,21.5h6.3v-0.9h-1.3l0.9-0.8c-1-0.8-1.9-1.4-2.7-2h-0.1c0-0.1,1.6-0.1,1.6-0.1v-0.6h1.8v-2H0.9v2h1.8v0.6
	h2.6l-1.2,0.5c-0.5,0.2-1.1,0.3-1.7,0.5l0.3,1.2c1.5,0,3.2-0.1,5-0.2v0.9H1.4v0.9h6.3v0.7h-7v1.1h16.3v-1.1h-7v-0.7L9.8,21.5z
	 M13,19.5c0.3,0.2,0.9,0.6,1.3,0.9c0.1,0.1,0.2,0.2,0.3,0.2h0.1c0,0.1-5,0.1-5,0.1v-0.9L13,19.5L13,19.5z M2.8,16.9v-0.8h11.5v0.8
	H2.8z M5.4,18.8c-0.1,0-0.2,0-0.2,0H4.9l0.3-0.1c0,0,2.4-0.6,3-0.9h3.3l-0.7,0.4h0.1c0.4,0.2,0.8,0.3,1.1,0.4h0.2
	c0,0.1-0.2,0.1-0.2,0.1C10.8,18.7,6.5,18.8,5.4,18.8L5.4,18.8z"/>
<path class="st0" d="M2.3,14.5h12.6v-2.4H2.3V14.5z M4.4,12.9h8.4v0.8H4.4V12.9z"/>
<path class="st0" d="M25.3,18.7c-0.5,0.2-1,0.3-1.5,0.4c-1.1,0.3-2.1,0.6-3.1,0.8h-0.1l0.7,2.2c1.1-0.4,1.9-0.7,2.8-1.2
	c0.4-0.2,0.7-0.3,1.1-0.5h0.1v2.9h2.4V8.1h-2.4v4.2h-4.2V14h4.2V18.7z"/>
<path class="st0" d="M37.4,19.3l-2.3-1.1v0.1c0,1.2-0.1,2-0.2,2.4c-0.1,0.4-0.3,0.6-0.6,0.7c-0.2,0-0.4,0-0.7,0s-0.5,0-0.7,0
	c-0.3,0-0.5-0.2-0.5-0.5v-6c1.6-0.6,3.3-1.4,4.8-2.3h0.1l-1.4-2c-1.1,0.8-2.3,1.5-3.4,2.2h-0.1V8H30v13.3c0,1.1,0.7,1.6,2,1.7
	c0.3,0,0.8,0,1.6,0c0.8,0,1.3,0,1.5,0c0.8-0.1,1.4-0.4,1.7-1C37.1,21.5,37.3,20.5,37.4,19.3L37.4,19.3z"/>
<path class="st0" d="M73.3,20.2c0.9,1.2,2.3,2.4,3.9,3.4l1-1.2c-1.5-1.1-2.8-2.4-3.7-3.7c1.4-2,2.1-4.4,2.2-7h1.1V10h-5.3
	c0.1-0.4,0.2-0.7,0.3-1c0.1-0.2,0.2-0.5,0.3-0.8l-2.3-0.4c-0.5,2.7-1.3,4.9-2.5,6.4l0.4,0.4h-1.2v-3.7h2.2V9.2h-8.4v1.6h4.2v9.4
	l-1.5,0.3v-7.8h-1.8v8l-1.3,0.2l0.4,2.1c3-0.6,5.8-1.3,8.5-2.1h0.2l-0.2-1.5l-2.2,0.4v-3.2h1.6v-1.5l0.3,0.3c0.4-0.4,0.7-0.8,1-1.3
	c0.4,1.6,0.9,3.1,1.7,4.4c-0.6,0.8-1.4,1.6-2.3,2.3l-0.2,0.1c-0.5,0.4-1.1,0.8-1.7,1.3l1,1.2C70.7,22.4,72.1,21.3,73.3,20.2
	L73.3,20.2z M72.2,11.7h2.4c0,1.8-0.4,3.5-1.1,5v0.1l-0.1-0.1C72.9,15.3,72.5,13.7,72.2,11.7L72.2,11.7z"/>
<path class="st0" d="M48.1,14h-5.5v7.8h2.2v-6.3h3.3v8.1h2.3v-8.1h3.3v4c0,0.2-0.1,0.3-0.2,0.4c-0.1,0.1-0.3,0.2-0.6,0.2
	c-0.3,0-0.5,0-0.8,0l0.3,1.7c0.5,0,0.8,0.1,1.2,0.1c0.9,0,1.5-0.2,1.9-0.4c0.4-0.3,0.5-0.8,0.5-1.5v-5.9h-5.5v-2.3h7.1v-1.6h-7.4
	c-0.2-0.7-0.4-1.5-0.6-2.3l-2.3,0.5c0.4,0.6,0.7,1.2,1.1,1.7c0,0.1-7.2,0.1-7.2,0.1v1.6h7.1V14z"/>
<path class="st0" d="M85.1,17.6l0.7,0.8c0.4-0.4,0.7-0.7,1-1.1h0.1c0-0.1,0,6,0,6h2.2v-9c0.4-0.8,0.8-1.6,1.2-2.5l-2.1-0.6
	c-0.7,2.1-1.7,4-3,5.5l-0.1,0.1v-0.1c0.1-0.6,0.1-1.2,0.1-1.8v-4h13.2V9.4H92c-0.1-0.6-0.2-0.9-0.3-1.5V7.7l-2.5,0.5
	c0.2,0.3,0.3,0.4,0.4,0.6C89.7,9,89.8,9.1,90,9.4c0,0.1-7.1,0.1-7.1,0.1V15c0,3.1-0.5,5.8-1.4,7.9l1.4,0.8c1.1-1.8,1.7-3.8,2-6v-0.1
	H85.1z"/>
<path class="st0" d="M92.4,20.6l1.2-0.8c-0.5-1.2-1.3-2.3-2.1-3.5l-1.7,1.1C91,18.6,91.9,19.7,92.4,20.6z"/>
<path class="st0" d="M94.1,23.5c1,0,1.7-0.1,2.2-0.4c0.4-0.3,0.6-0.7,0.6-1.3v-6.5h1.7v-1.6h-1.7v-1.6h-2.3v1.6h-4.1v1.6h4.1v5.8
	c0,0.3-0.1,0.5-0.2,0.6c-0.2,0.1-0.5,0.2-0.9,0.2c-0.4,0-0.9,0-1.4-0.1l0.3,1.7C92.9,23.4,93.5,23.5,94.1,23.5L94.1,23.5z"/>
<path class="st0" d="M53.1,48.6h8.4v-2.8h-8.4v-4.5h9.3v-2.8H44.1c0.4-0.9,0.7-1.8,1.1-2.7v-0.2c0.1,0-4.1-0.4-4.1-0.4v0.1
	c-1.2,4.2-3.2,7.6-5.9,10.1l-0.1,0.1l1.8,2.4l0.1-0.1c2.2-1.9,4-4.1,5.5-6.4H49v4.5h-9.5v8.7h-4v2.9H49v6.3h4v-6.3h10.2v-2.9H53
	v-5.9L53.1,48.6z M49.1,54.5h-5.6v-5.9h5.6V54.5z"/>
<path class="st0" d="M20.1,60.5c0,0.4-0.2,0.5-0.4,0.6c-0.3,0.1-1.8,0.2-3.7,0l0.5,2.4c1,0.2,1.7,0.2,2.5,0.2c1.9,0,3.3-0.2,4-0.6
	c0.7-0.4,1.1-1.2,1.1-2.4V49.3H3v14.4h3.9v-4h13.3V60.5L20.1,60.5z M6.8,51.7h13.3v1.8H6.8V51.7z M6.8,57.6v-1.8h13.3v1.8H6.8z"/>
<path class="st0" d="M15.4,43.3h9.2v-2.1h-9.2v-2.1H26v-2.3H15.4v-1.6h-4.3v1.6H0.6v2.3h10.5v2.1H2v2.1h9.1v2.1H0v2.3h26.6v-2.3
	H15.4V43.3z"/>
<path class="st0" d="M78.5,44.7h18.6v-8H74.5v9.5c-0.1,6.5-1.1,11.4-2.9,15v0.1c-0.1,0,2.3,1.8,2.3,1.8L74,63c2.6-4,4-8.2,4.4-13.2
	h16.3c0,2.8-0.1,4.3-0.2,5.4c-0.2,1.7-0.4,3-0.7,3.6c-0.4,0.8-1.1,1.3-1.8,1.3c-1.1,0.1-2.2,0-3.3-0.1l0.5,2.8
	c1.4,0.2,2.7,0.2,3.9,0.1c1.9-0.1,3.3-0.6,4.1-1.7c0.7-1,1.2-3,1.3-6.1c0.1-3.2,0.2-5.5,0.2-8.1V47H78.5L78.5,44.7L78.5,44.7z
	 M78.5,39.5h14.9v2.4H78.5V39.5z"/>
<path class="st0" d="M92.2,51.7h-13v7.2h13V51.7z M89.1,56.2h-6.8v-2.1h6.8V56.2z"/>
</svg>
